<?xml version="1.0" encoding="UTF-8"?>
<!DOCTYPE svg PUBLIC "-//W3C//DTD SVG 1.1//EN" "http://www.w3.org/Graphics/SVG/1.1/DTD/svg11.dtd">
<!-- Creator: CorelDRAW -->
<svg xmlns="http://www.w3.org/2000/svg" xml:space="preserve" width="51.4862mm" height="45.3651mm" version="1.1" style="shape-rendering:geometricPrecision; text-rendering:geometricPrecision; image-rendering:optimizeQuality; fill-rule:evenodd; clip-rule:evenodd"
viewBox="0 0 2170.69 1912.62"
 xmlns:xlink="http://www.w3.org/1999/xlink"
 xmlns:xodm="http://www.corel.com/coreldraw/odm/2003">
 <defs>
  <style type="text/css">
   <![CDATA[
    .fil0 {fill:white;fill-rule:nonzero}
   ]]>
  </style>
 </defs>
 <g id="Layer_x0020_1">
  <metadata id="CorelCorpID_0Corel-Layer"/>
  <path class="fil0" d="M-0 1802.26l0 90.67 9.63 0 43.91 -70.59 4.49 -8.55 0.38 0 -0.51 11.01 0 68.13 8.47 0 0 -90.67 -9.63 0 -43.39 69.94 -5 9.2 -0.38 0 0.51 -11.01 0 -68.13 -8.47 0zm101.09 0l0 90.67 8.47 0 0 -43.26 46.73 0 0 43.26 8.47 0 0 -90.67 -8.47 0 0 40.02 -46.73 0 0 -40.02 -8.47 0zm136.13 -5.44l0 10.75 -3.98 0c-25.42,0 -39.54,19.56 -39.54,39.25 0,19.69 14.12,39.25 39.54,39.25l3.98 0 0 11.01 8.47 0 0 -11.01 3.98 0c25.42,0 39.54,-19.56 39.54,-39.25 0,-19.69 -14.12,-39.25 -39.54,-39.25l-3.98 0 0 -10.75 -8.47 0zm0 81.86l-3.98 0c-17.46,0 -30.42,-11.53 -30.42,-31.86 0,-20.33 12.96,-31.86 30.42,-31.86l3.98 0 0 63.73zm8.47 -63.73l3.98 0c17.46,0 30.42,11.53 30.42,31.86 0,20.34 -12.96,31.86 -30.42,31.86l-3.98 0 0 -63.73zm66.69 32.77c0,29.92 17.84,46.24 40.69,46.24 22.85,0 40.69,-16.32 40.69,-46.24 0,-24.35 -13.22,-46.5 -40.69,-46.5 -27.47,0 -40.69,22.15 -40.69,46.5zm9.12 0c0,-27.2 15.92,-39.12 31.58,-39.12 15.66,0 31.58,11.91 31.58,39.12 0,27.2 -15.92,38.86 -31.58,38.86 -15.66,0 -31.58,-11.66 -31.58,-38.86zm101.21 -45.46l0 90.67 8.47 0 0 -38.34 14.89 0c16.82,0 26.96,-10.62 26.96,-26.16 0,-15.54 -10.27,-26.16 -26.96,-26.16l-23.37 0zm8.47 7.38l13.22 0c2.31,0 19.51,0.13 19.51,18.78 0,17.87 -14.63,18.78 -19.51,18.78l-13.22 0 0 -37.56zm115.84 75.13l-3.72 -12.05 -29.91 -70.46 -13.35 0 0 90.67 8.47 0 0 -70.2 -0.25 -12.31 0.51 0 4.36 11.91 29.78 70.59 8.73 0 29.78 -70.59 4.37 -11.91 0.51 0 -0.26 12.31 0 70.2 8.47 0 0 -90.67 -13.35 0 -29.91 70.46 -3.72 12.05 -0.51 0zm106.99 -82.51l-35.68 90.67 9.11 0 9.89 -25 44.42 0 9.88 25 9.12 0 -35.69 -90.67 -11.04 0zm5.65 8.42l2.96 8.55 16.3 41.32 -38.77 0 16.3 -41.32 2.96 -8.55 0.25 0zm64.89 -8.42l0 90.67 66.88 0 0 19.69 8.47 0 0 -27.07 -10.65 0 0 -83.28 -8.47 0 0 83.28 -47.75 0 0 -83.28 -8.47 0zm102.37 0l0 90.67 9.63 0 43.9 -70.59 4.49 -8.55 0.38 0 -0.51 11.01 0 68.13 8.47 0 0 -90.67 -9.63 0 -43.39 69.94 -5.01 9.2 -0.38 0 0.51 -11.01 0 -68.13 -8.47 0zm95.31 45.46c0,29.92 17.84,46.24 40.69,46.24 22.85,0 40.69,-16.32 40.69,-46.24 0,-24.35 -13.22,-46.5 -40.69,-46.5 -27.47,0 -40.69,22.15 -40.69,46.5zm9.11 0c0,-27.2 15.92,-39.12 31.58,-39.12 15.66,0 31.58,11.91 31.58,39.12 0,27.2 -15.92,38.86 -31.58,38.86 -15.66,0 -31.58,-11.66 -31.58,-38.86zm101.21 -45.46l0 90.67 8.47 0 0 -43.26 46.73 0 0 43.26 8.47 0 0 -90.67 -8.47 0 0 40.02 -46.73 0 0 -40.02 -8.47 0zm98.39 0l0 90.67 8.47 0 0 -43.26 46.72 0 0 43.26 8.47 0 0 -90.67 -8.47 0 0 40.02 -46.72 0 0 -40.02 -8.47 0zm92.61 45.46c0,29.92 17.84,46.24 40.69,46.24 22.85,0 40.69,-16.32 40.69,-46.24 0,-24.35 -13.22,-46.5 -40.69,-46.5 -27.47,0 -40.69,22.15 -40.69,46.5zm9.11 0c0,-27.2 15.92,-39.12 31.58,-39.12 15.66,0 31.58,11.91 31.58,39.12 0,27.2 -15.92,38.86 -31.58,38.86 -15.66,0 -31.58,-11.66 -31.58,-38.86zm101.21 -45.46l0 90.67 46.09 0 0 -7.38 -37.61 0 0 -35.75 33.51 0 0 -7.38 -33.51 0 0 -32.77 35.17 0 0 -7.38 -43.64 0zm129.07 0l-35.69 90.67 9.12 0 9.89 -25 44.42 0 9.88 25 9.12 0 -35.68 -90.67 -11.04 0zm5.65 8.42l2.96 8.55 16.3 41.32 -38.77 0 16.3 -41.32 2.96 -8.55 0.25 0zm64.89 -8.42l0 90.67 8.47 0 0 -83.28 37.61 0 0 -7.38 -46.08 0zm69.25 0l0 90.67 46.08 0 0 -7.38 -37.61 0 0 -35.75 33.51 0 0 -7.38 -33.51 0 0 -32.77 35.17 0 0 -7.38 -43.64 0zm74.38 0l0 90.67 8.47 0 0 -43.26 46.73 0 0 43.26 8.47 0 0 -90.67 -8.47 0 0 40.02 -46.73 0 0 -40.02 -8.47 0zm87.48 0l0 7.38 26.96 0 0 83.28 8.47 0 0 -83.28 26.96 0 0 -7.38 -62.39 0zm147.94 80.05c-6.67,2.72 -15.02,4.28 -23.1,4.28 -19.38,0 -35.3,-14.25 -35.3,-37.43 0,-22.8 13.48,-40.54 36.07,-40.54 2.57,0 10.91,0 20.67,3.89l0.77 -7.77c-6.42,-2.46 -12.71,-3.5 -20.67,-3.5 -32.86,0 -45.96,23.7 -45.96,47.79 0,22.93 13.86,44.95 45.06,44.95 9.49,0 17.2,-1.81 22.46,-3.5l0 -8.16zm13.15 -80.05l0 7.38 26.96 0 0 83.28 8.47 0 0 -83.28 26.96 0 0 -7.38 -62.39 0zm86.2 0l0 90.67 23.23 0c4.24,0 29.66,-0.26 29.66,-25.52 0,-10.75 -7.32,-19.43 -18.1,-21.5l0 -0.39c11.68,-3.89 15.54,-11.92 15.54,-20.46 0,-12.31 -7.58,-22.8 -26.32,-22.8l-24 0zm8.47 7.38l14.63 0c9.88,0 18.1,4.53 18.1,15.54 0,9.84 -6.42,17.23 -18.36,17.23l-14.38 0 0 -32.77zm0 40.15l14.5 0c12.07,0 20.8,6.48 20.8,17.75 0,16.58 -14.12,18 -21.7,18l-13.61 0 0 -35.75zm68.87 -2.07c0,29.92 17.84,46.24 40.69,46.24 22.85,0 40.69,-16.32 40.69,-46.24 0,-24.35 -13.22,-46.5 -40.69,-46.5 -27.47,0 -40.69,22.15 -40.69,46.5zm9.11 0c0,-27.2 15.92,-39.12 31.58,-39.12 15.66,0 31.58,11.91 31.58,39.12 0,27.2 -15.92,38.86 -31.58,38.86 -15.66,0 -31.58,-11.66 -31.58,-38.86zm-2036.33 -513.18l231.36 0 0 74.06c-6.13,0 -9.19,4.59 -9.19,13.77 0,2.3 0.19,5.07 0.57,8.33 0.38,3.25 1.15,6.99 2.3,11.19l49.37 201.51c3.83,14.55 6.89,24.02 9.19,28.42 2.3,4.4 5.55,6.6 9.76,6.6l0 74.06 -155.01 0 0 -74.06c3.44,-1.53 6.41,-3.93 8.9,-7.18 2.49,-3.25 3.74,-7.75 3.74,-13.49 0,-1.53 -0.19,-3.93 -0.57,-7.18 -0.38,-3.25 -0.96,-7.94 -1.72,-14.06l-68.89 0c-1.53,11.1 -2.3,18.18 -2.3,21.24 0,10.72 4.21,17.61 12.63,20.67l0 74.06 -152.14 0 0 -74.06c3.83,0 7.08,-2.2 9.76,-6.6 2.68,-4.4 5.55,-13.69 8.61,-27.84l49.37 -201.51c1.15,-3.83 1.91,-7.47 2.3,-10.91 0.38,-3.44 0.57,-6.32 0.57,-8.61 0,-5.36 -0.86,-9.09 -2.58,-11.2 -1.72,-2.1 -3.74,-3.15 -6.03,-3.15l0 -74.06zm91.28 229.64l45.93 0 -22.39 -153.29 -1.15 0 -22.39 153.29zm374.31 -144.1l0 78.65 13.2 0c27.94,0 41.91,-13.2 41.91,-39.61 0,-26.03 -12.83,-39.04 -38.47,-39.04l-16.65 0zm0 154.43l0 92.43 13.2 0c29.09,0 43.63,-15.89 43.63,-47.65 0,-29.85 -16.46,-44.78 -49.37,-44.78l-7.47 0zm-144.1 177.97l0 -74.06c11.1,0 16.65,-12.82 16.65,-38.47l0 -192.9c0,-25.64 -5.55,-38.46 -16.65,-38.46l0 -74.06 186.58 0c94.54,0 141.8,36.17 141.8,108.51 0,24.5 -6.22,43.73 -18.66,57.7 -12.44,13.97 -26.31,24.59 -41.62,31.86 22.2,7.27 38.94,19.42 50.23,36.45 11.29,17.03 16.94,37.8 16.94,62.29 0,40.95 -12.44,71.38 -37.32,91.28 -24.88,19.9 -61.62,29.85 -110.23,29.85l-187.73 0zm517.84 -332.41l0 125.15 8.04 0c16.84,0 28.42,-3.06 34.73,-9.18 6.32,-6.13 9.47,-17.23 9.47,-33.3l0 -38.46c0,-17.22 -3.16,-28.9 -9.47,-35.02 -6.32,-6.13 -17.89,-9.19 -34.73,-9.19l-8.04 0zm21.81 332.41l-166.49 0 0 -74.06c11.1,0 16.65,-12.82 16.65,-38.47l0 -192.9c0,-25.64 -5.55,-38.46 -16.65,-38.46l0 -74.06 180.27 0c26.41,0 48.8,2.68 67.17,8.04 18.37,5.36 33.3,14.16 44.78,26.41 11.48,12.25 19.9,28.23 25.26,47.94 5.36,19.71 8.04,43.92 8.04,72.63 0,21.81 -2.1,41.52 -6.32,59.13 -4.21,17.61 -11.29,32.73 -21.24,45.36 -9.95,12.63 -23.15,22.29 -39.61,28.99 -16.46,6.7 -36.93,10.05 -61.43,10.05 -8.8,0 -17.8,-0.76 -26.98,-2.29 -9.19,-1.53 -17.61,-4.02 -25.26,-7.46l0 16.65c0,13.4 1.72,23.16 5.16,29.28 3.44,6.13 9,9.19 16.65,9.19l0 74.06zm385.8 -122.29l0 -174.52c0,-14.93 -2.1,-25.45 -6.32,-31.58 -4.21,-6.12 -10.72,-9.19 -19.52,-9.19 -9.57,0 -16.36,2.97 -20.38,8.9 -4.02,5.93 -6.02,16.55 -6.02,31.86l0 174.52c0,14.93 2.01,25.45 6.02,31.58 4.02,6.13 10.81,9.19 20.38,9.19 8.8,0 15.31,-3.16 19.52,-9.47 4.21,-6.32 6.32,-16.75 6.32,-31.29zm-182.56 -18.37l0 -136.06c0,-28.7 2.77,-52.62 8.32,-71.76 5.55,-19.14 14.55,-34.54 26.98,-46.22 12.44,-11.67 28.61,-19.9 48.51,-24.69 19.9,-4.79 44.21,-7.18 72.91,-7.18 28.71,0 52.92,2.39 72.63,7.18 19.71,4.79 35.79,13.01 48.22,24.69 12.44,11.67 21.43,27.08 26.98,46.22 5.55,19.14 8.33,43.06 8.33,71.76l0 136.06c0,28.71 -2.77,52.62 -8.33,71.76 -5.55,19.14 -14.54,34.45 -26.98,45.93 -12.44,11.48 -28.51,19.61 -48.22,24.4 -19.71,4.79 -43.92,7.18 -72.63,7.18 -28.7,0 -53.01,-2.39 -72.91,-7.18 -19.9,-4.79 -36.07,-12.91 -48.51,-24.4 -12.44,-11.48 -21.43,-26.79 -26.98,-45.93 -5.55,-19.14 -8.32,-43.05 -8.32,-71.76zm506.93 -191.75l0 125.15 8.04 0c16.84,0 28.42,-3.06 34.73,-9.18 6.32,-6.13 9.47,-17.23 9.47,-33.3l0 -38.46c0,-17.22 -3.16,-28.9 -9.47,-35.02 -6.32,-6.13 -17.89,-9.19 -34.73,-9.19l-8.04 0zm21.81 332.41l-166.49 0 0 -74.06c11.1,0 16.65,-12.82 16.65,-38.47l0 -192.9c0,-25.64 -5.55,-38.46 -16.65,-38.46l0 -74.06 180.27 0c26.41,0 48.8,2.68 67.17,8.04 18.37,5.36 33.3,14.16 44.78,26.41 11.48,12.25 19.9,28.23 25.26,47.94 5.36,19.71 8.04,43.92 8.04,72.63 0,21.81 -2.1,41.52 -6.32,59.13 -4.21,17.61 -11.29,32.73 -21.24,45.36 -9.95,12.63 -23.15,22.29 -39.61,28.99 -16.46,6.7 -36.93,10.05 -61.43,10.05 -8.8,0 -17.8,-0.76 -26.98,-2.29 -9.19,-1.53 -17.61,-4.02 -25.26,-7.46l0 16.65c0,13.4 1.72,23.16 5.16,29.28 3.44,6.13 9,9.19 16.65,9.19l0 74.06zm222.18 -417.95l231.36 0 0 74.06c-6.12,0 -9.19,4.59 -9.19,13.77 0,2.3 0.19,5.07 0.57,8.33 0.38,3.25 1.15,6.99 2.3,11.19l49.37 201.51c3.83,14.55 6.89,24.02 9.19,28.42 2.3,4.4 5.55,6.6 9.76,6.6l0 74.06 -155.01 0 0 -74.06c3.44,-1.53 6.41,-3.93 8.9,-7.18 2.49,-3.25 3.73,-7.75 3.73,-13.49 0,-1.53 -0.19,-3.93 -0.57,-7.18 -0.38,-3.25 -0.96,-7.94 -1.72,-14.06l-68.89 0c-1.53,11.1 -2.3,18.18 -2.3,21.24 0,10.72 4.21,17.61 12.63,20.67l0 74.06 -152.14 0 0 -74.06c3.82,0 7.08,-2.2 9.76,-6.6 2.68,-4.4 5.55,-13.69 8.61,-27.84l49.37 -201.51c1.15,-3.83 1.91,-7.47 2.29,-10.91 0.39,-3.44 0.58,-6.32 0.58,-8.61 0,-5.36 -0.86,-9.09 -2.58,-11.2 -1.72,-2.1 -3.73,-3.15 -6.03,-3.15l0 -74.06zm91.28 229.64l45.93 0 -22.39 -153.29 -1.15 0 -22.39 153.29zm-891.29 -1564.19c149.45,0 284.76,60.58 382.7,158.52 97.94,97.94 158.52,233.25 158.52,382.7 0,58.49 -9.28,114.8 -26.45,167.57l-35.81 0c18.35,-52.46 28.33,-108.85 28.33,-167.57 0,-140.08 -56.78,-266.91 -148.58,-358.71 -91.8,-91.8 -218.62,-148.58 -358.71,-148.58 -66.29,0 -129.61,12.72 -187.66,35.85l0 -36.35c58.46,-21.61 121.68,-33.42 187.66,-33.42zm-231.34 89.63c-47.24,24.24 -90.18,55.69 -127.36,92.88 -91.8,91.8 -148.58,218.62 -148.58,358.71 0,33.58 3.27,66.39 9.49,98.15l-34.53 0c-5.83,-31.83 -8.89,-64.63 -8.89,-98.15 0,-149.45 60.58,-284.76 158.52,-382.7 43.7,-43.7 94.84,-79.95 151.35,-106.71l0 37.83zm676.7 759.19c-18.61,26.9 -39.6,52.03 -62.66,75.09 -97.94,97.94 -233.25,158.52 -382.7,158.52 -149.46,0 -284.76,-60.58 -382.7,-158.52 -23.06,-23.06 -44.05,-48.19 -62.66,-75.09l41.95 0c13.76,18.02 28.7,35.09 44.71,51.1 91.8,91.8 218.62,148.58 358.71,148.58 140.08,0 266.91,-56.78 358.71,-148.58 16.01,-16 30.95,-33.07 44.71,-51.1l41.94 0zm-1083.32 -28.66l1275.92 0 -32.32 -68.22 -35.79 0 0 -22.14 23.34 -9.05 0 -7.48 -23.34 9.05 0 -11.97 -37.25 6.79 0 34.8 -88.89 0 0 -40.25 -64.19 0 0 26.18 -36.65 0 0 -24.39 -29.31 0 -6.56 -293.54 114.58 0 0 -5.68 -114.71 0 -3.27 -146.32 36.59 0 0 -4.79 -36.7 0 -1.25 -55.96 -4.25 0 0 55.96 -41.89 0 0 4.79 41.89 0 0 146.32 -102.63 0 0 5.68 102.63 0 0 293.54 -67.89 0 0 -24.99 0 -33.95 -63.47 0 0 -66.42 -6.88 0 -15.71 -13.57 0 25.44 15.71 13.57 0 40.98 -35.32 0 0 -260.33 -49.97 0 0 260.33 -31.86 0 0 -66.42 -6.88 0 -15.71 -13.57 0 25.44 15.71 13.57 0 40.98 -33.07 0 0 -260.33 -49.97 0 0 260.33 -29.17 0 0 -66.42 -6.88 0 -15.71 -13.57 0 25.44 15.71 13.57 0 40.98 -35.76 0 0 -260.33 -49.97 0 0 260.33 -9.58 0 0 -25.59 0 -23.79 0 -14.21 0 -38.45 -27.83 0 0 -193.3 156.5 0 0 -11.97 -156.5 0 0 -191.81 45.18 0 0 -6.13 -45.18 0 0 -111.02 -5.08 0 -3.68 111.02 -48.69 0 0 6.13 48.48 0 -6.36 191.81 -167.05 0 0 11.97 166.65 0 -6.41 193.3 -39.5 0 0 38.45 19.45 0 0 14.21 -37.4 0 0 23.79 14.96 0 0 25.59 -28.13 0 0 33.95 -137.04 0 0 -32.45 -29.92 0 0 32.45 -126.83 0c0.05,53.9 -16.21,96.92 -44.89,131.66zm126.23 -154.28l44.58 20.36 0 -12.55 -44.58 -20.36 0 12.55z"/>
 </g>
</svg>
