<?xml version="1.0" encoding="UTF-8"?>
<!DOCTYPE svg PUBLIC "-//W3C//DTD SVG 1.1//EN" "http://www.w3.org/Graphics/SVG/1.1/DTD/svg11.dtd">
<!-- Creator: CorelDRAW -->
<svg xmlns="http://www.w3.org/2000/svg" xml:space="preserve" width="150.128mm" height="112.434mm" version="1.1" style="shape-rendering:geometricPrecision; text-rendering:geometricPrecision; image-rendering:optimizeQuality; fill-rule:evenodd; clip-rule:evenodd"
viewBox="0 0 15032.59 11258.22"
 xmlns:xlink="http://www.w3.org/1999/xlink"
 xmlns:xodm="http://www.corel.com/coreldraw/odm/2003">
 <defs>
  <style type="text/css">
   <![CDATA[
    .fil0 {fill:#FEFEFE}
    .fil1 {fill:white;fill-rule:nonzero}
   ]]>
  </style>
 </defs>
 <g id="Layer_x0020_1">
  <metadata id="CorelCorpID_0Corel-Layer"/>
  <g id="_1847870540064">
   <path class="fil0" d="M2328.09 7463.42l-7.04 0.07 -0.21 0 -6.9 0.11 -0.34 0 -6.7 0.2c-143.16,4.74 -258.68,57.38 -346.55,158.08 -92.31,105.63 -138.4,245.19 -138.4,418.77 0,158.92 45.15,294.89 135.44,407.82 84.61,105.88 202.01,162.11 352.13,168.74l7.27 0.25 0.28 0 7.42 0.22 0.17 0 7.63 0.14 7.72 0.03 0.1 0 6.95 0.08 0.2 0 6.83 -0.04 0.31 0 6.66 -0.07 0.48 0 6.45 -0.18c138.19,-4.28 251.01,-56.02 338.41,-155.04 93.18,-105.65 139.86,-246.27 139.86,-421.95 -2.04,-156.81 -48.12,-292.23 -138.44,-406.26 -84.58,-106.82 -201.08,-163.62 -349.47,-170.26l-7.22 -0.32 -0.25 0 -7.38 -0.2 -0.14 0 -7.52 -0.11 -0.03 0 -7.63 -0.07 -0.09 0zm17.72 -222.16l10.93 0.14 0.38 0 10.7 0.33c232.26,6.6 419.4,86.32 561.52,239.32 146.65,157.9 219.96,344.37 219.96,559.6 0,231.58 -79.66,422.2 -239.02,571.87 -151.8,142.68 -337.87,218.2 -558.12,226.78l-0.3 0 -10.57 0.36 -0.13 0 -10.7 0.25 -0.06 0 -10.72 0.13 -0.25 0 -10.92 -0.04 -0.42 0 -10.62 -0.21 -0.62 0c-231.95,-4.73 -418.92,-83.57 -561.02,-236.49 -146.6,-157.83 -218.94,-345.33 -216.98,-562.65 0,-229.53 79.19,-420.15 237.55,-571.86 150.91,-144.58 336.46,-220.24 556.68,-226.99l0.35 0 10.52 -0.29 0.17 0 10.73 -0.18 10.76 -0.07 0.2 0zm7794.08 261.87l0 1096.95c0,81.25 4.56,161.25 55.91,186.22l-402.48 0c38.85,-35.92 55.91,-104.88 55.91,-186.22l0 -1096.95 -255.08 0c-99.01,3.1 -204.77,53.9 -239.86,91.76l49.89 -307.28c49.74,11.37 76.97,11.98 124.55,11.98l925.25 0c45.46,0 80.4,-2.93 126.04,-11.98 -4.99,96.76 -25.68,195.81 -30.73,293.97 -36.11,-43.87 -101.13,-75.63 -176.48,-78.44l-232.93 0zm-2358.6 547.34l-1148.21 0c-16.85,349.67 219.96,570.2 554.52,570.2 195.77,3.43 375.59,-75.34 546.15,-169.44l-93.33 293.83c-139.49,41.89 -292.44,86.04 -509.73,86.04 -523.93,0 -789.49,-360.82 -811.75,-739.75 -24.16,-410.3 237.2,-841.71 762.72,-840.76 512.87,0.95 735.13,430.28 699.63,799.88zm-1140.13 -181.35l812.18 0c41.08,-223.08 -132.46,-430.4 -375.74,-426.61 -258.04,4 -408.6,215.75 -436.43,426.61zm-1836.15 -569.82l400.54 0c-38.71,26.92 -55.63,104.21 -55.63,185.31l0 1121.52 625.48 0 0 -1121.52c0,-81.01 -24.55,-157.65 -55.63,-185.31l400.51 0c-38.4,31.76 -59.1,102.61 -55.63,185.31l0 1121.52 206.96 0 0 542.61 -151.33 74.07c3.56,-139.35 -13.22,-246.13 -50.41,-320.21 -37.13,-74.15 -102.77,-111.18 -196.3,-111.18l-1068.56 0c43.69,-35.71 55.66,-104.39 55.66,-185.29l0 -1121.52c0,-81.05 -14.52,-152.64 -55.66,-185.31zm10171.89 187.19l0 1117.45c0,80.36 9.5,160.43 55.67,185.27l-400.54 8.44c28.58,-25.72 55.59,-112.83 55.59,-193.71l0 -1117.45 -445.54 0c28.12,258.78 56.23,634.66 -13.5,925.81 -52.32,218.2 -174.22,378.32 -433.32,391.61l-116.36 -243.35c329.78,0.88 362.71,-467.12 348.37,-761.03 -5.55,-113.45 -24.9,-456.23 -111.24,-498.35l1116.53 0c-43.45,31.75 -59.13,102.65 -55.67,185.31zm-14531.22 203.3l496.67 797.61c116.11,159.31 238.74,343.95 457.14,338.52l326.78 -4.67c-99.97,-55.52 -180.83,-115.75 -261.19,-197.22 -274.08,-278 -473.53,-637.99 -679.58,-971.59l651.06 -868.02 -508.2 0c40.03,30.28 49.43,72.1 49.43,131.65 -5.42,71.49 -68.58,154.36 -109.86,209.55l-422.24 564.17zm-445.7 -905.37l468.53 0c-57.43,45.29 -76.26,151.44 -76.26,268.64l0 1475.18c-3.12,118.52 11.13,230.51 76.26,268.64l-468.53 0c46.6,-38.63 73.27,-153.43 76.24,-268.64l0 -1475.18c-3.1,-115.9 -11.5,-222.51 -76.24,-268.64zm9230.4 514.89c-48.46,31.76 -59.1,102.58 -55.67,185.31l0 1117.3c0,80.76 9.5,155.42 55.67,185.27l-400.54 0c43.62,-30.7 55.66,-104.38 55.66,-185.27l0 -1107.73 -579 0 0 1107.73c0,80.76 9.54,160.44 55.71,185.27l-400.58 0c38.61,-35.71 55.67,-104.38 55.67,-185.27l0 -1117.3c0,-81.05 -9.5,-142.61 -55.67,-185.31 694.26,0 575.08,0 1268.74,0zm2393.57 283.08l-207.98 716.9 -91.18 -318.08 -258.78 -689.39 -336.18 1.02c31.61,22.35 71.21,95.13 111.95,194.46 22.96,55.98 201.34,468.37 334.13,767.13 48.81,109.82 119.75,242.51 149.81,284.86 -50.48,209.9 -227.59,288.98 -380.69,168.39l-230.17 189.19c88.28,51.68 219.4,103.08 353.38,103.08 253.52,0 407.12,-153.9 496.3,-412.54l446.75 -1295.58 -375.31 0c28.08,29.94 23.91,74.39 26.17,125.5 -0.92,57.51 -18.86,111.98 -38.19,165.07zm1552.15 221.35c-14.2,-256.14 -215.3,-371.34 -420.36,-357.66 -297.67,19.86 -453,319.23 -445.3,603.02 8.55,316.15 237.09,581.19 518.31,573.13 85.06,-2.44 184.11,-45.61 256.14,-83.96l-97.99 226.82c-40.51,20.02 -114.41,39.65 -172.14,42.8 -519.65,28.65 -805.15,-333.45 -797.2,-766.6 7.42,-404.01 270.34,-772.58 757.5,-772.58 135.19,0 298.1,51.15 402.77,147.87l-0.11 -127.99 340.85 0.98c-43.42,35.87 -55.6,102.59 -52.11,185.32l0 1004.29c-2.22,91.78 29.99,211.32 85.91,308.75l-298.56 0c-57.2,-83.69 -77.5,-225.87 -77.82,-355.13l0.11 -629.08zm-9551.44 102.18l625.49 0 0 -421.3c0,-81.01 -19.58,-157.65 -55.64,-185.31l400.55 0c-48.5,31.76 -59.1,102.58 -55.63,185.31l0 1117.3c0,80.8 9.46,155.42 55.63,185.27l-400.55 0c43.63,-30.7 55.64,-104.38 55.64,-185.27l0 -510.68 -625.49 0 0 510.68c0,80.87 9.54,160.44 55.64,185.27l-400.49 0c38.63,-35.71 55.63,-104.38 55.63,-185.27l0 -1117.3c0,-81.05 -9.52,-142.61 -55.63,-185.31l400.49 0c-43.63,26.92 -55.64,104.31 -55.64,185.31l0 421.3zm6614.96 -3677.53l0 -398.78c3.18,-13.1 6.33,-26.31 9.36,-39.66 -3.1,1.94 -6.22,3.85 -9.36,5.72l0 -143.31 48.14 -21.76c54.97,-209.16 78.77,-571.79 62.31,-755.12 -28.65,41.22 -75.66,49.09 -110.46,65.6l0 -159.88c41.5,-10.84 62.17,-41.01 73.2,-92.69 8.69,-158.96 -15.12,-273.34 -48.53,-374.33 -3.78,-11.41 -12.58,-28.12 -24.66,-45.14l0 -438.7c156.32,363.21 244.2,762.54 247.06,1181.28 2.93,428.02 -84.21,840.61 -247.06,1216.78zm0 -2398.06l0 438.7c-25.29,-35.65 -64.93,-72.95 -103.04,-67.12 -23.53,3.63 -48.04,0.71 -70.19,-8.44l0 -274.86c21.16,64.9 39.7,117.92 55.28,127.03l69.59 25.85c-8.16,-77.78 -65.46,-210.78 -124.87,-323.75l0 -258.99c64.57,109.67 122.47,223.74 173.23,341.58zm0 950.86l0 159.88c-2.75,1.27 -5.37,2.61 -7.95,4.03 9.12,232.9 -29.39,506.34 -67.08,741.06l75.03 -33.8 0 143.31c-34.15,20.42 -72.77,38.01 -113.64,53.45 -14.66,64.11 -34.9,141.76 -59.59,222.22l0 -571.86c24.55,-197.64 35.93,-387.19 29.18,-586.28 -3.04,-88.66 56.37,-121.05 124.62,-128.54 6.89,-0.78 13.39,-1.91 19.43,-3.46zm0 1048.42c-43.27,176.87 -101.76,329.29 -173.23,471.58l0 266.38c64.75,-109.11 122.64,-222.4 173.23,-339.18l0 -398.78zm-173.23 -2340.86l0 258.99c-33.63,-63.93 -67.93,-121.41 -94.38,-158.85 -15.37,-22.54 -31.76,-22.68 -30.38,-17.98 28.68,68.71 66.09,172.11 93.22,251.51 11.05,32.46 21.58,65.64 31.54,96.19l0 274.86c-33.7,-13.92 -61.85,-42.25 -72.31,-83.9 -52.6,-209.23 -106.26,-381.04 -187.83,-566.06 -16.35,-4.35 -37.34,-9.43 -60.51,-14.8l0 -139.74 2.33 0.42 -2.33 -6.36 0 -341.16c119.68,138.61 227.14,288.14 320.64,446.89zm0 2010.73l0 571.86c-40.41,131.62 -92.69,270.8 -151.9,370.98 -28.75,48.64 -94.55,66.2 -168.74,86.57l0 -137.55c52.64,-16.99 106.61,-43.27 124.98,-96.05 39.84,-114.59 86.54,-258.78 121.72,-403.93 -89.37,24.27 -173.9,53.34 -246.7,75.17l0 -140.77c6.26,0.18 13.46,-1.06 20,-2.33 105.44,-21.16 182.87,-53.16 266.45,-89.62 13.21,-80.01 24.65,-157.76 34.19,-234.34zm0 801.71c-88.49,176.23 -196.86,336.89 -320.64,509.2l0 200.32c120.32,-137.87 227.56,-286.27 320.64,-443.14l0 -266.38zm-320.64 -537.11c68.78,-195.13 110.82,-473.87 0,-625.62l0 625.62zm0 -2722.22l0 341.16c-83.65,-231.58 -279.63,-443.81 -508.63,-620.23 -231.2,-178.13 -496.09,-319.82 -713.02,-408.28 -100.5,-40.97 -203.83,-76.4 -309.55,-105.86l0 -153.73c435.68,110.42 834.99,313.78 1169.8,592.03 130.02,108.06 250.94,226.86 361.4,354.91zm0 347.1l-302.34 -57.83c-101.24,-19.4 -111.45,35.89 -73.3,122.15 40.12,90.82 144.23,222.36 148.51,404.18 2.47,104.59 -43.14,220.45 -161.47,225.05 -100.18,3.89 -185.83,-63.01 -244.97,-195.13 -38.96,-87.04 -72.31,-290.51 -72.06,-383.55 0.36,-146.31 2.68,-202.69 -162.2,-215.83 -292.13,-23.27 -449.57,-34.8 -577.31,-41.71 -22.92,-111.2 -56.58,-234.59 -86.04,-343.98l0 411.73 0 -411.73c-10.56,-39.18 -20.6,-76.59 -29.39,-110.96 -6.08,-23.7 -7.78,-31.12 29.39,-29.5l0 -125.72c-45.25,-8.02 -87.54,-16.04 -123.35,-15.09 -68.11,1.87 -119.3,27.56 -79.16,118.7 34.9,79.15 86.4,288.49 132.78,499.52 -121.83,-4.42 -258.82,-7.42 -517.08,-16.32 -80.72,-6.11 -114.45,6.43 -93.99,-72.63 17.8,-68.85 20.91,-188.39 19.08,-262.85 -5.76,-231.62 -177.43,-353.78 -371.65,-375.42l0 73.32 0 -73.32c-240.42,-26.75 -515.28,100.6 -552.79,365.67 -12.09,85.55 -8.55,191.03 -2.65,279.56 3.39,51.08 0.96,63.09 -60.58,65.78 -91.49,3.99 -201.27,8.23 -319.68,14.34l0 82.55 0 -82.55c-66.77,3.46 -136.25,7.52 -206.82,12.44 62.38,-169.27 133.74,-319.09 206.82,-445.3l0 -163.3c-55.04,-5.3 -140.95,33.16 -223.81,23.35l0 134.58c5.65,-0.74 11.41,-1.65 17.23,-2.68 59.39,-10.7 53.59,-4.45 25.4,54.26 -14.45,30.2 -28.72,59.77 -42.64,88.98l0 402.98 0 -402.98c-51.15,107.14 -98.56,209.8 -141.09,322.65 -168.85,15.16 -336.57,36.42 -480.59,67.68 -79.19,14.31 -105.26,67.65 -122.32,158.15 -25.54,135.51 -65.6,329.36 -166.95,431.35 -68.28,68.7 -153.41,62.06 -181.53,8.33 -47.97,-91.66 44.26,-234.66 85.24,-312.86 21.97,-41.9 113.53,-165.92 52.35,-200.6 207.98,-307.93 452.37,-545.69 747.95,-755.69 -3.28,88.7 73.8,157.83 206.93,140.44l0 -134.58c-3.07,-0.36 -6.12,-0.78 -9.15,-1.27 -68.53,-11.23 -60.37,-91.95 -38.08,-123 12.33,-17.2 28.44,-32.6 47.23,-46.31l0 -137.23c-327.81,176.76 -618.91,413.43 -860.96,696.91 -459.96,538.63 -745.73,1239.28 -740.57,1999.78 4.85,710.36 265.92,1402.01 727.3,1946.29 244.72,288.78 540.67,525.13 874.24,699.24l0 -224.84c-54.96,-13.21 -109.04,-28.47 -161.36,-46.2 -474.15,-282.52 -844.39,-745.63 -1075.06,-1312.69 -45.21,-111.1 -83.75,-167.75 -114.97,-285.25 27.73,6.89 61.35,31.58 87.6,35.26 66.24,9.29 113.75,-13.92 70.37,-154.54 -29.64,-95.98 -100,-343.6 -23.99,-441.34 98.88,-127.21 255.97,8.3 291.36,129.6 44.12,151.26 15.04,315.98 9.81,397.65 -6.67,105.09 33.77,186.69 144.37,204.14 166.95,26.34 328.13,45.32 495.42,59.48 28.02,138.3 53.06,287.09 87.75,390.23 23.6,70.29 39.49,92.62 -34.23,67.64 -50.66,-17.2 -127.17,-37.97 -196.86,-23.91 -174.15,35.12 -217.53,165.78 -186.91,307.25 55.92,257.9 321.7,386.52 567.1,396.12 15.68,0.6 28.58,0.53 39.6,0.64l0 -141.34c-172.63,-0.67 -409.24,-56.73 -472.85,-250.7 -15.51,-47.29 -12.23,-117.02 54.15,-157.97 47.83,-29.46 142.96,-16.07 259.88,28.86 59.56,22.89 115.08,20.42 135.15,13.11 10.45,-3.77 18.15,-9.6 23.67,-16.85l0 -99.22 -0.5 -1.38c-34.62,-95.41 -85.51,-289.34 -129.42,-501.32 43.24,2.96 86.54,5.66 129.92,8.12l0 -86.19 0 86.19c74.29,4.25 148.86,7.78 223.81,10.88l0 -90.33 0 90.33c123.84,5.16 248.75,9.04 375.17,12.69 62.56,1.79 108.62,-7.88 138.72,-50.38 34.66,-48.92 -1.27,-130.31 -29.53,-238.86 -42.75,-164.12 -30.74,-280.55 20.95,-396.72 64.03,-144.06 266.66,-219.9 430.39,-174.79l0 -43.43 0 43.43c103.96,28.69 192.23,106.15 219.33,246.07 34.08,238.04 -14.41,310.29 -40.44,474.47 -11.91,75.1 23.88,159.13 115.51,163.73 182.06,9.15 457.41,5.9 738.98,-6.78l0 -74.42 0 74.42 14.59 -0.64c-4.88,47.09 -9.71,92.69 -14.59,135.86l0 488.11c31.47,2.96 69.48,-7.91 114.41,-20.6 97.39,-27.63 192.27,-71.28 307.53,-21.51 67.26,29.07 109.96,94.8 85.87,198.1 -42.25,181.17 -263.03,210.78 -419.9,191.52 -30.76,-3.77 -60.23,-8.4 -87.92,-11.52l0 136.07c19.39,2.12 44.4,5.73 77.32,8.34 246.77,29.81 515.49,-43.6 574.31,-314.39 30.06,-138.43 -23.85,-241.37 -135.09,-314.55 -98.52,-64.86 -241.12,-59.85 -337.59,-22.65 -47.65,18.37 -68.77,15.51 -54.43,-71.1 18.75,-113.29 33.45,-249.15 48.92,-389.94 281.78,-16.43 524.88,-30.88 694.61,-61.64 120.18,-3.5 141.45,-77.57 119.51,-194.86 -13.46,-71.8 -19.96,-257.69 7.98,-377.19 37.41,-215.51 161.47,-295.38 272.7,-293.62 142.58,2.26 194.05,91.24 192.38,208.87 -2.26,164.47 -25.04,272.14 -76.02,405.8 -35.86,94.8 -49.74,206.75 57.83,191.84 26.96,-5.76 56.73,-13.99 88.77,-23.63l0 -140.77c-12.29,-0.39 -20.74,-6.33 -12.29,-28.23 4.17,-10.84 8.3,-22.01 12.29,-33.45l0 -625.62c-52.14,-71.46 -138.18,-114.77 -271.36,-107.88 -257.55,13.39 -384.19,212.79 -415.38,457.27 -18.19,142.68 -24.48,250.17 -5.09,345.75 9.67,47.58 4.56,76.23 -27.77,81.57 -118.59,20.38 -361.73,33.02 -622.84,50.83 15.4,-152.25 28.97,-303.93 39.21,-434.56 20.38,-259.8 32.46,-518.73 -13.25,-715.03 -24.09,-89.23 -97.95,-78.2 -170.4,-60.01 -14.45,4.87 -29.25,9.21 -44.33,13.1l0 90.15 0 -90.15c-272.81,69.91 -639.76,-29.25 -628.39,-354.94 4.84,-140.66 76.16,-257.83 235.82,-306.4 106.65,-32.46 223.89,-5.93 325.41,14.06 23.35,4.6 45.78,9.22 67.16,13.29l0 -66.05 0 66.05c113.56,21.65 195.03,26.88 197.04,-79.16 2.11,-112.26 -9.36,-233.28 -26.39,-338.31 -18.78,-115.68 -36.52,-220.49 -54.75,-318.97 173.87,7.77 344.98,18.4 514.26,34.27 32.46,3.03 47.47,26.99 45.25,65.49 -7.39,127.28 29.99,287.05 78.03,442.89 41.78,135.54 211.1,310.29 391.64,293.13 173.76,-16.57 255.75,-105.59 290.26,-267.47 18.65,-87.54 6.89,-242.82 -82.17,-388.46 -45.07,-73.73 -43.66,-100.25 -1.55,-90.65 43.35,9.89 118.76,26.21 179.59,40.45l0 -139.74zm0 3002.38c-37.51,12.05 -74.36,19.4 -97.11,28.19 -162.84,63.05 -280.4,205.03 -294.64,327.07 -16.25,138.79 101.66,279.21 247.56,226.96 -107.53,126.46 -254.15,250.41 -415.28,362.61 -204.7,142.5 -432.79,266.09 -634.03,351.93l48.57 -80.86c28.76,-53.84 16.42,-121.34 -89.06,-107 -90.99,17.2 -192.02,35.54 -297.21,50.45l0 116.99c75.03,-12.76 149.74,-26.82 218.23,-38.47 43.81,-7.81 -19.18,82.1 -47.01,123.45 -60.16,20.88 -115.83,39.22 -171.22,55.5l0 141.5c181.71,-41.99 362.6,-103.92 559.11,-198.76 378.15,-182.55 706.7,-435.97 972.09,-740.18l0 -200.32 -4.73 6.64c-117.45,102.37 -263.28,78.84 -239.29,-73.51 16.04,-101.62 129.71,-182.31 216.57,-206.96 9.25,-2.65 18.44,-5.2 27.45,-7.67l0 -137.55zm-1531.19 -3629.49c7.59,0.32 16.81,1.02 27.98,2.05 90.67,8.4 202.44,10.91 263.98,-18.09 164.86,-77.74 73.9,-370.2 -291.95,-439.64l0 106.96c68.03,18.01 128.51,44.79 160.83,65 109.46,68.32 94.1,166.06 3.59,172.14 -55.06,4.63 -111.76,-4.77 -164.43,-14.13l0 125.72zm0 -666.92l0 153.73c-77.96,-21.73 -157.27,-40.24 -237.73,-55.36l27.59 50.2c28.79,56.34 9.99,37.17 74.46,42.57 43.88,3.64 87.79,15.65 131.69,19.33l4 0.78 0 106.96c-46.14,-12.23 -95.74,-20.49 -142.43,-19.96l-121.73 0.42c-51.47,-6.18 -52.35,-8.72 -73.55,-55.74 -25.68,-57.12 -22.11,-131.4 -68.77,-172.17l-14.77 -1.77c-28.19,-4.45 -56.76,-8.05 -85.77,-10.91 -65.98,-6.43 -133.91,-9 -203.43,-8.47 6.29,47.75 -3.03,93.85 -42.64,125.93 -77.82,63.09 -179.8,83.23 -280.3,88.07l0 -108.13c90.89,-9.32 202.27,-36.42 182.38,-104.38 -62.66,-1.38 -123.42,0.1 -182.38,4.31l0 -138.78c81.07,-7 163.16,-10.84 246.17,-11.45 270.98,-1.87 535.16,30.9 787.21,94.84zm0 4160.13l0 488.11c-19.15,-1.84 -35.93,-8.72 -50.38,-23.42 -34.15,-34.83 -0.67,-110.92 10.77,-176.34 12.05,-61.04 25.68,-164.82 39.6,-288.35zm0 824.11l0 136.07c-48.57,-5.37 -62.21,-1.8 -78.03,48.43 -20.56,71.1 -77.18,242.43 -101.2,307.81 60.4,-5.3 120.45,-12.55 179.24,-20.81l0 116.99c-80.23,13.64 -160.8,25.74 -234.52,31.79l-79.48 177.07c119.3,-17.59 216.18,-39.66 314,-68.38l0 141.5c-235.26,54.37 -471.9,75.29 -745.38,90.76 -97.21,0.7 -193.25,-2.92 -288,-10.66l0 -130.18c177.04,16.33 356.32,16.46 534.1,0.07l93.99 -193.86c-63.72,3.53 -389.62,23.78 -440,5.66 -43.09,-15.55 -37.62,-86.44 -14.16,-166.38 40.79,-138.93 17.23,-302.73 -173.94,-336.21l0 -144.8c205.76,27.45 352.92,168.78 328.06,399.24 -3,28.12 -52.22,137.41 25.78,132.64 110.53,-6.75 215.72,7.42 331.41,-10.98 59.35,-152.53 95.21,-236.14 149.75,-403.09 34.9,-106.85 106.99,-112.97 198.38,-102.69zm-1033.38 -5067.65l0 138.78c-63.33,4.49 -124.62,12.12 -184,22.54 -10.84,79.16 102.87,85.38 178.45,78.1l5.55 -0.57 0 108.13c-18.61,0.88 -37.2,1.23 -55.53,1.27 -70.92,0.1 -188.24,-10.35 -243.38,-66.13 -23.45,-23.7 -33.48,-52.74 -32.28,-85.91 -115.79,14.73 -214.17,38.93 -315.09,80.86 -29.89,12.41 -50.94,41.44 -66.63,64.93 -12.08,18.09 -36.56,30.03 -59.77,31.2 -28.65,1.44 -92.12,7.38 -163.01,22.29l0 -159.07 11.73 -5.09c286.91,-123.39 597.3,-203.01 923.98,-231.33zm0 5052.53l0 144.8c-23.17,-4.04 -48.78,-6.22 -77,-6.19 -219.37,0.39 -253.03,194.54 -182.31,376.81 12.58,32.39 65.07,85.52 9,115.79 -41.43,8.66 -59.56,8.66 -101.9,5.77 -100.68,-6.93 -221.49,-23.43 -321.59,-35.69 29.35,40.44 63.05,92.44 98.2,128.87 134.66,40.3 290.54,68.27 432.62,88.59 47.43,6.79 95.13,12.36 142.99,16.77l0 130.18c-330.71,-26.86 -645.23,-104.01 -935.7,-225.72l0 -133.93c65.46,30.49 131.82,59.18 163.62,68.64 -24.79,-27.1 -55.35,-66.38 -72.87,-93.79 -14.28,-1.9 -49.67,-7.84 -90.75,-15.96l0 -111.73 14.66 2.18c-4.7,-6.5 -9.61,-13.63 -14.66,-21.12l0 -271.51c56.09,110.54 126.32,222.19 190.68,314.42 52.67,12.9 261.11,22.64 299.93,25.85 62.49,5.09 20.39,-65.67 17.45,-114.27 -15.72,-258.4 120.67,-397.75 362.29,-393.62 22.32,0.39 44.12,2.01 65.35,4.84zm-935.7 -2174.91l0 -89.2c132.74,-35.11 201.41,-140.3 207.07,-305.87 6.39,-186.76 -78.99,-311.77 -207.07,-345.36l0 -89.56 0 89.56c-17.63,-4.63 -36.04,-7.52 -55.14,-8.62 -47.44,-3.56 -106.72,10.99 -168.67,27.88l0 -93.77 0 93.77c-55.81,15.22 -113.82,32.35 -167.19,39.77 -101.45,14.1 -179.7,-6.71 -176.16,-141.97 2.61,-100.07 36.07,-234.94 64.46,-355.72 23.38,-99.54 51.19,-196.65 82.69,-292.09 -122.22,11.7 -237.02,25.78 -338.04,43.56 -49.64,8.69 -72.71,19.78 -80.05,65.1 -27.38,169.06 -74.36,359.32 -221.13,487.9 -100.32,87.89 -220.64,107.99 -303.44,60.12 -55.56,-32.17 -71.95,-97.14 -76.62,-190.82 -88.38,197.18 -159.56,435.8 -197.18,644.85 -64.56,359.14 -55.42,779.75 25.26,1140.48 14.55,6.04 31.93,20.14 47.72,22.22 33.02,4.45 -2.61,-81.99 -9.54,-107.25 -47.65,-174.43 -51.36,-339.71 78.45,-458.11 141.66,-129.11 386.52,-30.91 462.26,201.91 46.13,141.73 43.87,309.34 35.33,464.8 -1.7,31.19 6.85,61.5 36.38,67.22 101.24,19.61 257.48,38.19 429.83,53.73 -58.39,-296.72 -96.61,-604.76 -88.03,-992.79 2.86,-129.36 96.62,-154.05 199.79,-146.74 71.71,5.13 132.36,19.68 195.21,29.47l0 85.55 0 -85.55c47.47,7.45 96.19,12.15 151.89,8.05 25.75,-1.94 49.74,-5.83 71.92,-11.7l0 89.2zm0 -2084.62c9.78,-16.99 19.64,-33.52 29.49,-49.64 22.05,-35.96 32.43,-72.2 8.41,-97.18 -9.75,-10.2 -22.68,-15.01 -37.9,-16.49l0 163.3zm0 -556.57l0 159.07c-77.64,16.28 -164.16,43.31 -223.81,86.96l0 -137.23c72.81,-39.32 147.47,-75.6 223.81,-108.8zm0 4978.88l0 271.51c-45.29,-67.47 -103.54,-172.07 -146.6,-251.93 -24.65,-44.34 -39.59,-47.69 -77.21,-48.18l0 -141.34c9.99,0.07 19.78,-0.07 29.35,-0.35 58.36,-1.8 104.85,7.06 139.28,49.88 15.79,39.28 34.56,79.79 55.18,120.42zm0 290.44c-74.64,-11.37 -149.99,-25.4 -223.81,-43.14l0 224.84c72.84,38.02 147.51,73.1 223.81,105.07l0 -133.93c-69.91,-32.56 -138.79,-67.15 -163.66,-82.52 37.55,14.49 106.15,30.03 163.66,41.4l0 -111.73zm-223.81 -843.94l0 -99.22c11.59,32.53 18.89,74.29 0,99.22z"/>
   <g>
    <path class="fil1" d="M5472.89 10633.46l-299.29 0 0 600.46 -134.67 0 0 -1309.4 134.67 0 0 587.35 299.29 0 443.33 -587.35 149.66 0 -486.36 635.99 514.42 673.42 -159 0 -462.05 -600.46zm1906.15 -708.94l0 1309.4 -136.55 0 0 -1189.7 -632.28 0 -14.96 437.73c-6.24,180.82 -20.87,326.4 -43.95,436.76 -23.07,110.38 -58.3,192.67 -105.7,246.92 -47.38,54.24 -110.38,81.38 -188.93,81.38 -33.67,0 -68.6,-4.39 -104.75,-13.1l11.22 -123.47c21.2,5.01 41.78,7.49 61.73,7.49 54.87,0 99.45,-21.83 133.75,-65.46 34.31,-43.67 60.18,-111.32 77.62,-202.97 17.46,-91.65 29.32,-212.95 35.56,-363.83l18.69 -561.17 888.54 0zm1470.26 0l-594.85 1101.76c-42.39,78.55 -91.95,136.88 -148.71,174.91 -56.74,38.04 -118.79,57.04 -186.13,57.04 -49.86,0 -103.48,-11.83 -160.85,-35.53l39.28 -112.25c44.88,17.46 86.04,26.2 123.45,26.2 86.04,0 156.5,-46.78 211.37,-140.31l37.41 -63.59 -531.23 -1008.23 147.77 0 456.41 886.64 467.67 -886.64 138.41 0zm243.18 0l957.73 0 0 117.84 -821.17 0 0 428.37 428.34 0c154.64,0 272.18,31.79 352.61,95.39 80.43,63.61 120.66,155.9 120.66,276.86 0,125.96 -43.34,222.59 -130.01,289.92 -86.66,67.35 -211.07,101.02 -373.2,101.02l-534.96 0 0 -1309.4zm533.11 1199.03c120.97,0 212.32,-23.05 274.03,-69.2 61.74,-46.15 92.6,-114.73 92.6,-205.76 0,-89.8 -30.24,-156.82 -90.72,-201.09 -60.49,-44.27 -152.44,-66.42 -275.91,-66.42l-396.55 0 0 542.47 396.55 0z"/>
   </g>
  </g>
 </g>
</svg>
